<mxfile host="www.draw.io" modified="2020-01-13T06:19:24.874Z" agent="Mozilla/5.0 (Macintosh; Intel Mac OS X 10.15; rv:72.0) Gecko/20100101 Firefox/72.0" etag="nLT1828FK5GwBtNk8rV1" version="12.5.1" type="github">
  <diagram id="yZvIk-EH8Ej1EUAhiVC6" name="Page-1">
    <mxGraphModel dx="1186" dy="779" grid="1" gridSize="10" guides="1" tooltips="1" connect="1" arrows="1" fold="1" page="1" pageScale="1" pageWidth="850" pageHeight="1100" math="0" shadow="0">
      <root>
        <mxCell id="0"/>
        <mxCell id="1" parent="0"/>
        <mxCell id="sfI04hz0fIJnskIM5_Dg-1" value="&lt;p style=&quot;margin: 0px ; margin-top: 4px ; text-align: center&quot;&gt;&lt;i&gt;&amp;lt;&amp;lt;Interface&amp;gt;&amp;gt;&lt;/i&gt;&lt;br&gt;&lt;b&gt;Command&lt;/b&gt;&lt;/p&gt;&lt;hr size=&quot;1&quot;&gt;&lt;p style=&quot;margin: 0px ; margin-left: 4px&quot;&gt;&lt;br&gt;&lt;/p&gt;&lt;hr size=&quot;1&quot;&gt;&lt;p style=&quot;margin: 0px ; margin-left: 4px&quot;&gt;+ execute(): void&lt;br&gt;&lt;/p&gt;" style="verticalAlign=top;align=left;overflow=fill;fontSize=12;fontFamily=Helvetica;html=1;" vertex="1" parent="1">
          <mxGeometry x="290" y="40" width="190" height="110" as="geometry"/>
        </mxCell>
        <mxCell id="sfI04hz0fIJnskIM5_Dg-2" style="edgeStyle=orthogonalEdgeStyle;rounded=0;orthogonalLoop=1;jettySize=auto;html=1;exitX=0.5;exitY=1;exitDx=0;exitDy=0;" edge="1" parent="1" source="sfI04hz0fIJnskIM5_Dg-1" target="sfI04hz0fIJnskIM5_Dg-1">
          <mxGeometry relative="1" as="geometry"/>
        </mxCell>
        <mxCell id="sfI04hz0fIJnskIM5_Dg-3" value="&lt;p style=&quot;margin: 0px ; margin-top: 4px ; text-align: center&quot;&gt;&lt;b&gt;ConcreteCommand&lt;/b&gt;&lt;br&gt;&lt;/p&gt;&lt;hr size=&quot;1&quot;&gt;&lt;p style=&quot;margin: 0px ; margin-left: 4px&quot;&gt;+ receiver: Receiver&lt;/p&gt;&lt;hr size=&quot;1&quot;&gt;&lt;p style=&quot;margin: 0px ; margin-left: 4px&quot;&gt;+ execute(): void&lt;/p&gt;" style="verticalAlign=top;align=left;overflow=fill;fontSize=12;fontFamily=Helvetica;html=1;" vertex="1" parent="1">
          <mxGeometry x="305" y="220" width="160" height="90" as="geometry"/>
        </mxCell>
        <mxCell id="sfI04hz0fIJnskIM5_Dg-4" value="&lt;p style=&quot;margin: 0px ; margin-top: 4px ; text-align: center&quot;&gt;&lt;b&gt;Receiver&lt;/b&gt;&lt;/p&gt;&lt;hr size=&quot;1&quot;&gt;&lt;p style=&quot;margin: 0px ; margin-left: 4px&quot;&gt;&lt;br&gt;&lt;/p&gt;&lt;hr size=&quot;1&quot;&gt;&lt;p style=&quot;margin: 0px ; margin-left: 4px&quot;&gt;+ action(): void&lt;br&gt;&lt;/p&gt;" style="verticalAlign=top;align=left;overflow=fill;fontSize=12;fontFamily=Helvetica;html=1;" vertex="1" parent="1">
          <mxGeometry x="50" y="220" width="160" height="90" as="geometry"/>
        </mxCell>
        <mxCell id="sfI04hz0fIJnskIM5_Dg-5" value="" style="endArrow=diamondThin;endFill=0;endSize=24;html=1;entryX=0;entryY=0.5;entryDx=0;entryDy=0;exitX=1;exitY=0.5;exitDx=0;exitDy=0;" edge="1" parent="1" source="sfI04hz0fIJnskIM5_Dg-4" target="sfI04hz0fIJnskIM5_Dg-3">
          <mxGeometry width="160" relative="1" as="geometry">
            <mxPoint x="50" y="330" as="sourcePoint"/>
            <mxPoint x="210" y="330" as="targetPoint"/>
          </mxGeometry>
        </mxCell>
        <mxCell id="sfI04hz0fIJnskIM5_Dg-6" value="" style="endArrow=block;dashed=1;endFill=0;endSize=12;html=1;entryX=0.5;entryY=1;entryDx=0;entryDy=0;" edge="1" parent="1" source="sfI04hz0fIJnskIM5_Dg-3" target="sfI04hz0fIJnskIM5_Dg-1">
          <mxGeometry width="160" relative="1" as="geometry">
            <mxPoint x="50" y="330" as="sourcePoint"/>
            <mxPoint x="210" y="330" as="targetPoint"/>
          </mxGeometry>
        </mxCell>
      </root>
    </mxGraphModel>
  </diagram>
</mxfile>
